<?xml version="1.0" encoding="UTF-8"?> <svg xmlns="http://www.w3.org/2000/svg" id="Layer_1" data-name="Layer 1" width="631.9" height="387.3" version="1.2" viewBox="0 0 631.9 387.3"><g><path d="M133,98.6h45.6v51.7h49.9v-51.7h45.8v147.7h-45.8v-59.7h-49.9v59.7h-45.6V98.6Z" fill="#fff" stroke-width="0"></path><path d="M304.2,98.6h60l23.1,89.9,23-89.9h60v147.7h-37.4v-112.6l-28.8,112.6h-33.8l-28.7-112.6v112.6h-37.4V98.6Z" fill="#fff" stroke-width="0"></path><path d="M491.5,197.4l43.4-2.7c.9,7.1,2.9,12.4,5.7,16.1,4.7,6,11.4,9,20.1,9s11.5-1.5,15.1-4.6c3.5-3.1,5.3-6.6,5.3-10.6s-1.7-7.3-5-10.3-11.1-5.9-23.4-8.6c-20-4.5-34.3-10.5-42.8-17.9-8.6-7.5-12.9-17-12.9-28.5s2.2-14.8,6.6-21.5c4.4-6.7,11-12.1,19.8-15.9,8.8-3.9,20.9-5.8,36.3-5.8s33.3,3.5,43.2,10.5c9.9,7,15.8,18.2,17.7,33.5l-43,2.5c-1.1-6.6-3.5-11.5-7.2-14.5-3.7-3-8.7-4.5-15.2-4.5s-9.3,1.1-12,3.4c-2.7,2.3-4,5-4,8.2s1.1,4.5,3.3,6.3c2.1,1.9,7.3,3.8,15.3,5.4,19.9,4.3,34.2,8.6,42.9,13,8.6,4.4,14.9,9.9,18.8,16.4,3.9,6.5,5.9,13.8,5.9,21.9s-2.6,18.2-7.9,26.2c-5.2,8-12.6,14.1-22,18.2-9.4,4.1-21.3,6.2-35.6,6.2-25.1,0-42.5-4.8-52.2-14.5-9.7-9.7-15.1-22-16.4-36.9Z" fill="#fff" stroke-width="0"></path></g><path d="M19.6,183l8.5,8.5,3.6,3.6c0-.7,0-1.4,0-2.1,0-9.4.9-18.3,2.6-27.4,1.6-9,4.3-17.8,7.6-26.3,3.3-8.5,7.4-16.7,12.1-24.5,4.8-7.8,10-15.2,16-22,23.6-27.6,55.1-47,87.7-58.3,17.6-6.1,35.5-9.9,53.2-11.6l7.5-7.5-8.1-8.1c-1.6,0-3.2.2-4.9.2-17.8,1-36,3.9-54,9.1-9,2.7-18,5.8-26.8,9.6-8.9,3.7-17.6,8.2-26,13.1-16.9,10-32.7,22.8-46.6,38-13.9,15.1-25.7,32.9-33.6,52.7-4,9.9-7.3,20.1-9.3,30.7-.6,2.6-.9,5.3-1.3,8l-.6,4-.4,4.3-.4,4.3-.2,2.1v1.7c0,0-.3,7-.3,7v1.2s0,.5,0,.5v1s0,1.7,0,1.7l5.1-5.1,8.5-8.5Z" fill="#fff" stroke-width="0"></path><path d="M219.6,363.6c-20.6-1.3-41.5-5.2-62-12.4-32.6-11.3-64-30.8-87.7-58.3-6-6.8-11.2-14.2-16-22-4.8-7.7-8.9-15.9-12.2-24.5-3.3-8.5-6-17.3-7.6-26.3-.4-2.2-.8-4.5-1.1-6.7l-13.5-13.5-12.5,12.5c.2,1.5.4,3.1.6,4.6.5,2.7.8,5.3,1.3,8,2,10.6,5.2,20.9,9.2,30.7,8,19.8,19.7,37.6,33.6,52.7,13.9,15.2,29.7,27.9,46.6,38,8.5,5,17.2,9.4,26.1,13.1,8.8,3.8,17.8,7,26.8,9.6,18,5.3,36.3,8.2,54,9.1,2.2.1,4.4.2,6.6.3,2.3,0,4.5,0,6.8,0,.7,0,1.3,0,1.9,0l-8.2-8.2,7-7Z" fill="#fff" stroke-width="0"></path><path d="M341.6,338.9c-24.6,12.8-53.9,21.5-85.6,24.3-6.6.5-13.2.8-20,.8l-6.5,6.5,7.6,7.6h1c2.1-.2,4.3-.4,6.4-.6,4.2-.4,8.4-1,12.6-1.5,16.6-2.5,32.4-6.4,47.1-11.7,14.8-5.1,28.5-11.4,40.9-18.7,22.1-13.1,40.5-28.5,54.4-44.5h-6.7c-13.6,13.9-30.8,27.1-51.2,37.7Z" fill="#fff" stroke-width="0"></path><path d="M345.1,40.1c-12.4-7.3-26.1-13.6-40.9-18.6-14.7-5.2-30.5-9.2-47.1-11.6-4.2-.5-8.6-1.1-12.8-1.5-2-.2-4.1-.3-6.1-.5l-3.1-.2h-3.5c-1.5-.2-3-.2-4.5-.3l8.1,8.1-6.4,6.4c9.2-.2,18.2,0,27.1.7,31.7,2.8,61,11.6,85.6,24.3,20.5,10.6,37.7,23.8,51.4,37.8h6.7c-13.9-16.1-32.3-31.5-54.5-44.6Z" fill="#fff" stroke-width="0"></path><g><path d="M133,286.9v-24.6h3.6v10.1h14.1v-10.1h3.6v24.6h-3.6v-11.6h-14.1v11.6h-3.6Z" fill="#fff" stroke-width="0"></path><path d="M157.4,286.9l10.4-24.6h3.9l11.1,24.6h-4.1l-3.2-7.5h-11.4l-3,7.5h-3.8ZM165.2,276.8h9.2l-2.8-6.8c-.9-2.1-1.5-3.8-1.9-5.1-.3,1.6-.8,3.1-1.5,4.7l-3,7.2Z" fill="#fff" stroke-width="0"></path><path d="M182.7,286.9l10.4-24.6h3.9l11.1,24.6h-4.1l-3.2-7.5h-11.4l-3,7.5h-3.8ZM190.5,276.8h9.2l-2.8-6.8c-.9-2.1-1.5-3.8-1.9-5.1-.3,1.6-.8,3.1-1.5,4.7l-3,7.2Z" fill="#fff" stroke-width="0"></path><path d="M223.7,277.2v-2.9h11.5s0,9.1,0,9.1c-1.8,1.3-3.6,2.2-5.5,2.9-1.9.6-3.8,1-5.8,1s-5.1-.5-7.3-1.6c-2.2-1-3.8-2.5-4.9-4.5-1.1-2-1.7-4.1-1.7-6.6s.6-4.6,1.7-6.7c1.1-2.1,2.7-3.6,4.8-4.6,2.1-1,4.5-1.5,7.2-1.5s3.7.3,5.3.9c1.6.6,2.8,1.4,3.7,2.4.9,1,1.6,2.4,2.1,4l-3.2.8c-.4-1.3-.9-2.2-1.5-3-.6-.7-1.5-1.3-2.6-1.7-1.1-.4-2.4-.6-3.7-.6s-3.1.2-4.3.7c-1.2.5-2.2,1-2.9,1.8-.7.7-1.3,1.5-1.7,2.4-.7,1.5-1,3.2-1,5s.4,4,1.3,5.5c.8,1.5,2,2.6,3.6,3.3,1.6.7,3.3,1.1,5.1,1.1s3.1-.3,4.6-.8,2.6-1.1,3.4-1.7v-4.6h-8Z" fill="#fff" stroke-width="0"></path><path d="M239.3,279l3.4-.3c.2,1.2.5,2.2,1.1,3,.6.8,1.5,1.4,2.7,1.9,1.2.5,2.6.7,4.2.7s2.6-.2,3.6-.6c1.1-.4,1.8-.9,2.3-1.5.5-.6.8-1.3.8-2.1s-.2-1.4-.7-2c-.5-.6-1.3-1.1-2.4-1.5-.7-.3-2.3-.7-4.8-1.2-2.5-.5-4.2-1.1-5.2-1.5-1.3-.6-2.3-1.4-2.9-2.3-.6-.9-1-1.9-1-3.1s.4-2.4,1.2-3.5c.8-1.1,1.9-1.9,3.4-2.5s3.2-.8,5-.8,3.8.3,5.3.9c1.5.6,2.7,1.5,3.6,2.6.8,1.1,1.3,2.4,1.3,3.9l-3.5.2c-.2-1.6-.8-2.7-1.9-3.5-1.1-.8-2.6-1.2-4.7-1.2s-3.8.4-4.8,1.1c-1,.7-1.5,1.6-1.5,2.6s.4,1.6,1.1,2.2c.7.6,2.5,1.2,5.4,1.8,2.9.6,4.9,1.1,6,1.6,1.6.7,2.8,1.5,3.5,2.5.8,1,1.1,2.2,1.1,3.5s-.4,2.5-1.2,3.7c-.8,1.2-2,2.1-3.6,2.7-1.6.6-3.3,1-5.2,1s-4.5-.3-6.2-1c-1.7-.6-3-1.6-3.9-2.9-.9-1.3-1.4-2.8-1.5-4.4Z" fill="#fff" stroke-width="0"></path><path d="M266,286.9v-24.6h19.7v2.9h-16.1v7.5h15v2.9h-15v8.4h16.7v2.9h-20.3Z" fill="#fff" stroke-width="0"></path><path d="M301.7,286.9v-24.6h5.4l6.4,17.4c.6,1.6,1,2.8,1.3,3.6.3-.9.8-2.2,1.4-3.9l6.5-17.1h4.8v24.6h-3.5v-20.6l-7.9,20.6h-3.2l-7.9-21v21h-3.5Z" fill="#fff" stroke-width="0"></path><path d="M334.1,286.9v-24.6h3.6v24.6h-3.6Z" fill="#fff" stroke-width="0"></path><path d="M343.8,286.9v-24.6h3.6v21.7h13.4v2.9h-17Z" fill="#fff" stroke-width="0"></path><path d="M365.7,286.9v-24.6h3.6v24.6h-3.6Z" fill="#fff" stroke-width="0"></path><path d="M375.7,286.9v-24.6h19.7v2.9h-16.1v7.5h15v2.9h-15v8.4h16.7v2.9h-20.3Z" fill="#fff" stroke-width="0"></path><path d="M418.9,262.3h3.6v14.2c0,2.5-.3,4.4-.9,5.9-.6,1.5-1.7,2.6-3.3,3.6-1.6.9-3.7,1.4-6.4,1.4s-4.6-.4-6.2-1.2c-1.6-.8-2.8-1.9-3.5-3.5-.7-1.5-1-3.6-1-6.2v-14.2h3.6v14.2c0,2.1.2,3.7.7,4.7.4,1,1.2,1.8,2.3,2.3,1.1.5,2.4.8,3.9.8,2.6,0,4.5-.5,5.7-1.6,1.1-1.1,1.7-3.2,1.7-6.3v-14.2Z" fill="#fff" stroke-width="0"></path><path d="M437.8,279l3.4-.3c.2,1.2.5,2.2,1.1,3,.6.8,1.5,1.4,2.7,1.9,1.2.5,2.6.7,4.2.7s2.6-.2,3.6-.6c1.1-.4,1.8-.9,2.3-1.5s.8-1.3.8-2.1-.2-1.4-.7-2c-.5-.6-1.3-1.1-2.4-1.5-.7-.3-2.3-.7-4.8-1.2-2.5-.5-4.2-1.1-5.2-1.5-1.3-.6-2.3-1.4-2.9-2.3-.6-.9-1-1.9-1-3.1s.4-2.4,1.2-3.5c.8-1.1,1.9-1.9,3.4-2.5,1.5-.6,3.2-.8,5-.8s3.8.3,5.3.9c1.5.6,2.7,1.5,3.6,2.6.8,1.1,1.3,2.4,1.3,3.9l-3.5.2c-.2-1.6-.8-2.7-1.9-3.5-1.1-.8-2.6-1.2-4.7-1.2s-3.8.4-4.8,1.1c-1,.7-1.5,1.6-1.5,2.6s.4,1.6,1.1,2.2c.7.6,2.5,1.2,5.4,1.8,2.9.6,4.9,1.1,6,1.6,1.6.7,2.8,1.5,3.5,2.5.8,1,1.1,2.2,1.1,3.5s-.4,2.5-1.2,3.7c-.8,1.2-2,2.1-3.6,2.7s-3.3,1-5.2,1-4.5-.3-6.2-1c-1.7-.6-3-1.6-3.9-2.9-.9-1.3-1.4-2.8-1.5-4.4Z" fill="#fff" stroke-width="0"></path><path d="M464.4,286.9v-24.6h19.7v2.9h-16.1v7.5h15v2.9h-15v8.4h16.7v2.9h-20.3Z" fill="#fff" stroke-width="0"></path><path d="M489.7,286.9v-24.6h12.1c2.4,0,4.3.2,5.5.7,1.3.4,2.3,1.2,3,2.3.8,1.1,1.1,2.4,1.1,3.7s-.6,3.2-1.9,4.4c-1.2,1.2-3.2,2-5.8,2.3,1,.4,1.7.8,2.2,1.2,1.1.9,2,2,3,3.3l4.7,6.7h-4.5l-3.6-5.1c-1.1-1.5-1.9-2.6-2.6-3.4-.7-.8-1.3-1.3-1.8-1.6-.5-.3-1.1-.5-1.6-.7-.4,0-1.1-.1-2-.1h-4.2v10.9h-3.6ZM493.3,273.1h7.7c1.6,0,2.9-.2,3.9-.5.9-.3,1.6-.8,2.1-1.5.5-.7.7-1.4.7-2.2,0-1.2-.5-2.1-1.4-2.9-.9-.8-2.4-1.1-4.4-1.1h-8.6v8.1Z" fill="#fff" stroke-width="0"></path><path d="M524.2,286.9l-10.5-24.6h3.9l7.1,17.9c.6,1.4,1,2.8,1.4,4,.4-1.3.9-2.7,1.5-4l7.3-17.9h3.7l-10.6,24.6h-3.7Z" fill="#fff" stroke-width="0"></path><path d="M542.4,286.9v-24.6h3.6v24.6h-3.6Z" fill="#fff" stroke-width="0"></path><path d="M571.7,278.3l3.6.8c-.8,2.7-2.1,4.7-4.1,6.1-2,1.4-4.4,2.1-7.2,2.1s-5.3-.5-7.2-1.6-3.2-2.6-4.2-4.7c-1-2-1.4-4.2-1.4-6.6s.5-4.8,1.6-6.7c1.1-1.9,2.6-3.4,4.6-4.3,2-1,4.2-1.5,6.6-1.5s5,.6,6.9,1.9c1.9,1.3,3.1,3,3.9,5.3l-3.5.8c-.6-1.8-1.5-3.1-2.7-3.9-1.2-.8-2.7-1.2-4.5-1.2s-3.8.5-5.2,1.4c-1.4.9-2.4,2.1-3,3.7-.6,1.5-.9,3.1-.9,4.7s.3,3.9,1,5.5c.7,1.6,1.7,2.7,3.1,3.5,1.4.8,3,1.2,4.6,1.2s3.7-.5,5.1-1.6c1.4-1.1,2.3-2.6,2.8-4.7Z" fill="#fff" stroke-width="0"></path><path d="M579.8,286.9v-24.6h19.7v2.9h-16.1v7.5h15v2.9h-15v8.4h16.7v2.9h-20.3Z" fill="#fff" stroke-width="0"></path><path d="M603.9,279l3.4-.3c.2,1.2.5,2.2,1.1,3,.6.8,1.5,1.4,2.7,1.9,1.2.5,2.6.7,4.2.7s2.6-.2,3.6-.6c1.1-.4,1.8-.9,2.3-1.5s.8-1.3.8-2.1-.2-1.4-.7-2c-.5-.6-1.3-1.1-2.4-1.5-.7-.3-2.3-.7-4.8-1.2-2.5-.5-4.2-1.1-5.2-1.5-1.3-.6-2.3-1.4-2.9-2.3-.6-.9-1-1.9-1-3.1s.4-2.4,1.2-3.5c.8-1.1,1.9-1.9,3.4-2.5,1.5-.6,3.2-.8,5-.8s3.8.3,5.3.9c1.5.6,2.7,1.5,3.6,2.6.8,1.1,1.3,2.4,1.3,3.9l-3.5.2c-.2-1.6-.8-2.7-1.9-3.5-1.1-.8-2.6-1.2-4.7-1.2s-3.8.4-4.8,1.1c-1,.7-1.5,1.6-1.5,2.6s.4,1.6,1.1,2.2c.7.6,2.5,1.2,5.4,1.8,2.9.6,4.9,1.1,6,1.6,1.6.7,2.8,1.5,3.5,2.5.8,1,1.1,2.2,1.1,3.5s-.4,2.5-1.2,3.7c-.8,1.2-2,2.1-3.6,2.7-1.6.6-3.3,1-5.2,1s-4.5-.3-6.2-1c-1.7-.6-3-1.6-3.9-2.9-.9-1.3-1.4-2.8-1.5-4.4Z" fill="#fff" stroke-width="0"></path></g><path d="M40.1,211.7s-11.5-11.5-20.6-20.6c-9.8,9.8-22.5,22.5-22.5,22.5" display="none" fill="none" stroke="#feffff" stroke-miterlimit="10" stroke-width="11.5"></path><path d="M210.5,31.3s9.2-9.2,16.4-16.4c-7.8-7.8-18-18-18-18" display="none" fill="none" stroke="#feffff" stroke-miterlimit="10" stroke-width="11.5"></path><path d="M237.4,354.6l-16.4,16.4c7.8,7.8,18,18,18,18" display="none" fill="none" stroke="#feffff" stroke-miterlimit="10" stroke-width="11.5"></path></svg> 